<svg width="1536" height="704" viewBox="0 0 1536 704" fill="none" xmlns="http://www.w3.org/2000/svg">
<g filter="url(#filter0_f_633_416)">
<ellipse cx="6.5" cy="172.5" rx="6.5" ry="172.5" transform="matrix(1 0 0 -1 1359 490)" fill="url(#paint0_linear_633_416)"/>
<ellipse cx="6.5" cy="172.5" rx="6.5" ry="172.5" transform="matrix(1 0 0 -1 1376 490)" fill="url(#paint1_linear_633_416)"/>
<ellipse cx="6.5" cy="174" rx="6.5" ry="174" transform="matrix(1 0 0 -1 1393 490)" fill="url(#paint2_linear_633_416)"/>
<ellipse cx="6.5" cy="175.5" rx="6.5" ry="175.5" transform="matrix(1 0 0 -1 1411 490)" fill="url(#paint3_linear_633_416)"/>
<ellipse cx="6.5" cy="175.5" rx="6.5" ry="175.5" transform="matrix(1 0 0 -1 1429 490)" fill="url(#paint4_linear_633_416)"/>
<ellipse cx="6.5" cy="175.5" rx="6.5" ry="175.5" transform="matrix(1 0 0 -1 1447 490)" fill="url(#paint5_linear_633_416)"/>
</g>
<g filter="url(#filter1_f_633_416)">
<ellipse cx="6.5" cy="191" rx="6.5" ry="191" transform="matrix(1 0 0 -1 1157 495)" fill="url(#paint6_linear_633_416)"/>
<ellipse cx="6.5" cy="183" rx="6.5" ry="183" transform="matrix(1 0 0 -1 1174 495)" fill="url(#paint7_linear_633_416)"/>
<ellipse cx="6.5" cy="172" rx="6.5" ry="172" transform="matrix(1 0 0 -1 1191 495)" fill="url(#paint8_linear_633_416)"/>
<ellipse cx="6.5" cy="166" rx="6.5" ry="166" transform="matrix(1 0 0 -1 1209 495)" fill="url(#paint9_linear_633_416)"/>
<ellipse cx="6.5" cy="161.5" rx="6.5" ry="161.5" transform="matrix(1 0 0 -1 1227 495)" fill="url(#paint10_linear_633_416)"/>
<ellipse cx="6.5" cy="159.5" rx="6.5" ry="159.5" transform="matrix(1 0 0 -1 1245 495)" fill="url(#paint11_linear_633_416)"/>
</g>
<g filter="url(#filter2_f_633_416)">
<ellipse cx="6.5" cy="167.5" rx="6.5" ry="167.5" transform="matrix(1 0 0 -1 946 392)" fill="url(#paint12_linear_633_416)"/>
<ellipse cx="6.5" cy="169.5" rx="6.5" ry="169.5" transform="matrix(1 0 0 -1 963 392)" fill="url(#paint13_linear_633_416)"/>
<ellipse cx="6.5" cy="168.5" rx="6.5" ry="168.5" transform="matrix(1 0 0 -1 980 392)" fill="url(#paint14_linear_633_416)"/>
<ellipse cx="6.5" cy="168.5" rx="6.5" ry="168.5" transform="matrix(1 0 0 -1 998 392)" fill="url(#paint15_linear_633_416)"/>
<ellipse cx="6.5" cy="167.5" rx="6.5" ry="167.5" transform="matrix(1 0 0 -1 1016 392)" fill="url(#paint16_linear_633_416)"/>
<ellipse cx="6.5" cy="168.5" rx="6.5" ry="168.5" transform="matrix(1 0 0 -1 1034 392)" fill="url(#paint17_linear_633_416)"/>
<ellipse cx="6.5" cy="171" rx="6.5" ry="171" transform="matrix(1 0 0 -1 1056 418)" fill="url(#paint18_linear_633_416)"/>
<ellipse cx="6.5" cy="172" rx="6.5" ry="172" transform="matrix(1 0 0 -1 1073 418)" fill="url(#paint19_linear_633_416)"/>
<ellipse cx="6.5" cy="171" rx="6.5" ry="171" transform="matrix(1 0 0 -1 1090 418)" fill="url(#paint20_linear_633_416)"/>
<ellipse cx="6.5" cy="172" rx="6.5" ry="172" transform="matrix(1 0 0 -1 1108 418)" fill="url(#paint21_linear_633_416)"/>
<ellipse cx="6.5" cy="168.5" rx="6.5" ry="168.5" transform="matrix(1 0 0 -1 1126 418)" fill="url(#paint22_linear_633_416)"/>
<ellipse cx="6.5" cy="167" rx="6.5" ry="167" transform="matrix(1 0 0 -1 1144 418)" fill="url(#paint23_linear_633_416)"/>
</g>
<g filter="url(#filter3_f_633_416)">
<ellipse cx="6.5" cy="170" rx="6.5" ry="170" transform="matrix(1 0 0 -1 840 401)" fill="url(#paint24_linear_633_416)"/>
<ellipse cx="6.5" cy="172" rx="6.5" ry="172" transform="matrix(1 0 0 -1 857 401)" fill="url(#paint25_linear_633_416)"/>
<ellipse cx="6.5" cy="172" rx="6.5" ry="172" transform="matrix(1 0 0 -1 874 401)" fill="url(#paint26_linear_633_416)"/>
<ellipse cx="6.5" cy="174" rx="6.5" ry="174" transform="matrix(1 0 0 -1 892 401)" fill="url(#paint27_linear_633_416)"/>
<ellipse cx="6.5" cy="173" rx="6.5" ry="173" transform="matrix(1 0 0 -1 910 401)" fill="url(#paint28_linear_633_416)"/>
<ellipse cx="6.5" cy="175.5" rx="6.5" ry="175.5" transform="matrix(1 0 0 -1 928 401)" fill="url(#paint29_linear_633_416)"/>
</g>
<g filter="url(#filter4_f_633_416)">
<ellipse cx="6.5" cy="135" rx="6.5" ry="135" transform="matrix(1 0 0 -1 103 654)" fill="url(#paint30_linear_633_416)"/>
<ellipse cx="6.5" cy="135" rx="6.5" ry="135" transform="matrix(1 0 0 -1 120 654)" fill="url(#paint31_linear_633_416)"/>
<ellipse cx="6.5" cy="138" rx="6.5" ry="138" transform="matrix(1 0 0 -1 137 654)" fill="url(#paint32_linear_633_416)"/>
<ellipse cx="6.5" cy="139.5" rx="6.5" ry="139.5" transform="matrix(1 0 0 -1 155 654)" fill="url(#paint33_linear_633_416)"/>
<ellipse cx="6.5" cy="141" rx="6.5" ry="141" transform="matrix(1 0 0 -1 173 654)" fill="url(#paint34_linear_633_416)"/>
<ellipse cx="6.5" cy="143.5" rx="6.5" ry="143.5" transform="matrix(1 0 0 -1 191 654)" fill="url(#paint35_linear_633_416)"/>
</g>
<g filter="url(#filter5_f_633_416)">
<ellipse cx="6.5" cy="146.5" rx="6.5" ry="146.5" transform="matrix(1 0 0 -1 209 657)" fill="url(#paint36_linear_633_416)"/>
<ellipse cx="6.5" cy="148" rx="6.5" ry="148" transform="matrix(1 0 0 -1 226 657)" fill="url(#paint37_linear_633_416)"/>
<ellipse cx="6.5" cy="152.5" rx="6.5" ry="152.5" transform="matrix(1 0 0 -1 243 657)" fill="url(#paint38_linear_633_416)"/>
<ellipse cx="6.5" cy="152.5" rx="6.5" ry="152.5" transform="matrix(1 0 0 -1 261 657)" fill="url(#paint39_linear_633_416)"/>
<ellipse cx="6.5" cy="154.5" rx="6.5" ry="154.5" transform="matrix(1 0 0 -1 279 657)" fill="url(#paint40_linear_633_416)"/>
<ellipse cx="6.5" cy="157" rx="6.5" ry="157" transform="matrix(1 0 0 -1 297 657)" fill="url(#paint41_linear_633_416)"/>
</g>
<g filter="url(#filter6_f_633_416)">
<ellipse cx="6.5" cy="152" rx="6.5" ry="152" transform="matrix(1 0 0 -1 315 642)" fill="url(#paint42_linear_633_416)"/>
<ellipse cx="6.5" cy="153" rx="6.5" ry="153" transform="matrix(1 0 0 -1 332 642)" fill="url(#paint43_linear_633_416)"/>
<ellipse cx="6.5" cy="157" rx="6.5" ry="157" transform="matrix(1 0 0 -1 349 642)" fill="url(#paint44_linear_633_416)"/>
<ellipse cx="6.5" cy="158" rx="6.5" ry="158" transform="matrix(1 0 0 -1 367 642)" fill="url(#paint45_linear_633_416)"/>
<ellipse cx="6.5" cy="161.5" rx="6.5" ry="161.5" transform="matrix(1 0 0 -1 385 642)" fill="url(#paint46_linear_633_416)"/>
<ellipse cx="6.5" cy="164" rx="6.5" ry="164" transform="matrix(1 0 0 -1 403 642)" fill="url(#paint47_linear_633_416)"/>
</g>
<g filter="url(#filter7_f_633_416)">
<ellipse cx="6.5" cy="134" rx="6.5" ry="134" transform="matrix(1 0 0 -1 416 578)" fill="url(#paint48_linear_633_416)"/>
<ellipse cx="6.5" cy="137" rx="6.5" ry="137" transform="matrix(1 0 0 -1 433 578)" fill="url(#paint49_linear_633_416)"/>
<ellipse cx="6.5" cy="139" rx="6.5" ry="139" transform="matrix(1 0 0 -1 450 578)" fill="url(#paint50_linear_633_416)"/>
<ellipse cx="6.5" cy="144" rx="6.5" ry="144" transform="matrix(1 0 0 -1 468 578)" fill="url(#paint51_linear_633_416)"/>
<ellipse cx="6.5" cy="147" rx="6.5" ry="147" transform="matrix(1 0 0 -1 486 578)" fill="url(#paint52_linear_633_416)"/>
<ellipse cx="6.5" cy="151" rx="6.5" ry="151" transform="matrix(1 0 0 -1 504 578)" fill="url(#paint53_linear_633_416)"/>
</g>
<g filter="url(#filter8_f_633_416)">
<ellipse cx="6.5" cy="118" rx="6.5" ry="118" transform="matrix(1 0 0 -1 522 497)" fill="url(#paint54_linear_633_416)"/>
<ellipse cx="6.5" cy="127" rx="6.5" ry="127" transform="matrix(1 0 0 -1 539 497)" fill="url(#paint55_linear_633_416)"/>
<ellipse cx="6.5" cy="146" rx="6.5" ry="146" transform="matrix(1 0 0 -1 556 497)" fill="url(#paint56_linear_633_416)"/>
<ellipse cx="6.5" cy="142.5" rx="6.5" ry="142.5" transform="matrix(1 0 0 -1 574 458)" fill="url(#paint57_linear_633_416)"/>
<ellipse cx="6.5" cy="153" rx="6.5" ry="153" transform="matrix(1 0 0 -1 592 458)" fill="url(#paint58_linear_633_416)"/>
<ellipse cx="6.5" cy="165" rx="6.5" ry="165" transform="matrix(1 0 0 -1 610 458)" fill="url(#paint59_linear_633_416)"/>
</g>
<g filter="url(#filter9_f_633_416)">
<ellipse cx="6.5" cy="159.5" rx="6.5" ry="159.5" transform="matrix(1 0 0 -1 628 434)" fill="url(#paint60_linear_633_416)"/>
<ellipse cx="6.5" cy="163.5" rx="6.5" ry="163.5" transform="matrix(1 0 0 -1 645 434)" fill="url(#paint61_linear_633_416)"/>
<ellipse cx="6.5" cy="168.5" rx="6.5" ry="168.5" transform="matrix(1 0 0 -1 662 434)" fill="url(#paint62_linear_633_416)"/>
<ellipse cx="6.5" cy="168.5" rx="6.5" ry="168.5" transform="matrix(1 0 0 -1 680 434)" fill="url(#paint63_linear_633_416)"/>
<ellipse cx="6.5" cy="173" rx="6.5" ry="173" transform="matrix(1 0 0 -1 698 434)" fill="url(#paint64_linear_633_416)"/>
<ellipse cx="6.5" cy="175.5" rx="6.5" ry="175.5" transform="matrix(1 0 0 -1 716 434)" fill="url(#paint65_linear_633_416)"/>
</g>
<g filter="url(#filter10_f_633_416)">
<ellipse cx="6.5" cy="163.5" rx="6.5" ry="163.5" transform="matrix(1 0 0 -1 734 407)" fill="url(#paint66_linear_633_416)"/>
<ellipse cx="6.5" cy="166.5" rx="6.5" ry="166.5" transform="matrix(1 0 0 -1 751 407)" fill="url(#paint67_linear_633_416)"/>
<ellipse cx="6.5" cy="168.5" rx="6.5" ry="168.5" transform="matrix(1 0 0 -1 768 407)" fill="url(#paint68_linear_633_416)"/>
<ellipse cx="6.5" cy="171" rx="6.5" ry="171" transform="matrix(1 0 0 -1 786 407)" fill="url(#paint69_linear_633_416)"/>
<ellipse cx="6.5" cy="173" rx="6.5" ry="173" transform="matrix(1 0 0 -1 804 407)" fill="url(#paint70_linear_633_416)"/>
<ellipse cx="6.5" cy="171" rx="6.5" ry="171" transform="matrix(1 0 0 -1 822 407)" fill="url(#paint71_linear_633_416)"/>
</g>
<g filter="url(#filter11_f_633_416)">
<ellipse cx="6.5" cy="126" rx="6.5" ry="126" transform="matrix(1 0 0 -1 5 648)" fill="url(#paint72_linear_633_416)"/>
<ellipse cx="6.5" cy="126" rx="6.5" ry="126" transform="matrix(1 0 0 -1 21 648)" fill="url(#paint73_linear_633_416)"/>
<ellipse cx="6.5" cy="126" rx="6.5" ry="126" transform="matrix(1 0 0 -1 37 648)" fill="url(#paint74_linear_633_416)"/>
<ellipse cx="6.5" cy="126" rx="6.5" ry="126" transform="matrix(1 0 0 -1 53 648)" fill="url(#paint75_linear_633_416)"/>
<ellipse cx="6.5" cy="129" rx="6.5" ry="129" transform="matrix(1 0 0 -1 69 648)" fill="url(#paint76_linear_633_416)"/>
<ellipse cx="6.5" cy="130" rx="6.5" ry="130" transform="matrix(1 0 0 -1 85 648)" fill="url(#paint77_linear_633_416)"/>
</g>
<g filter="url(#filter12_f_633_416)">
<ellipse cx="6.5" cy="167" rx="6.5" ry="167" transform="matrix(1 0 0 -1 1258 503)" fill="url(#paint78_linear_633_416)"/>
<ellipse cx="6.5" cy="168.5" rx="6.5" ry="168.5" transform="matrix(1 0 0 -1 1275 503)" fill="url(#paint79_linear_633_416)"/>
<ellipse cx="6.5" cy="168.5" rx="6.5" ry="168.5" transform="matrix(1 0 0 -1 1292 503)" fill="url(#paint80_linear_633_416)"/>
<ellipse cx="6.5" cy="171" rx="6.5" ry="171" transform="matrix(1 0 0 -1 1310 503)" fill="url(#paint81_linear_633_416)"/>
<ellipse cx="6.5" cy="173" rx="6.5" ry="173" transform="matrix(1 0 0 -1 1328 503)" fill="url(#paint82_linear_633_416)"/>
<ellipse cx="6.5" cy="173" rx="6.5" ry="173" transform="matrix(1 0 0 -1 1346 503)" fill="url(#paint83_linear_633_416)"/>
</g>
<g filter="url(#filter13_f_633_416)">
<ellipse cx="6.5" cy="168.5" rx="6.5" ry="168.5" transform="matrix(1 0 0 -1 1465 469)" fill="url(#paint84_linear_633_416)"/>
<ellipse cx="6.5" cy="168.5" rx="6.5" ry="168.5" transform="matrix(1 0 0 -1 1483 469)" fill="url(#paint85_linear_633_416)"/>
<ellipse cx="6.5" cy="173" rx="6.5" ry="173" transform="matrix(1 0 0 -1 1501 469)" fill="url(#paint86_linear_633_416)"/>
<ellipse cx="6.5" cy="175.5" rx="6.5" ry="175.5" transform="matrix(1 0 0 -1 1519 469)" fill="url(#paint87_linear_633_416)"/>
</g>
<defs>
<filter id="filter0_f_633_416" x="1309" y="89" width="201" height="451" filterUnits="userSpaceOnUse" color-interpolation-filters="sRGB">
<feFlood flood-opacity="0" result="BackgroundImageFix"/>
<feBlend mode="normal" in="SourceGraphic" in2="BackgroundImageFix" result="shape"/>
<feGaussianBlur stdDeviation="25" result="effect1_foregroundBlur_633_416"/>
</filter>
<filter id="filter1_f_633_416" x="1117" y="73" width="181" height="462" filterUnits="userSpaceOnUse" color-interpolation-filters="sRGB">
<feFlood flood-opacity="0" result="BackgroundImageFix"/>
<feBlend mode="normal" in="SourceGraphic" in2="BackgroundImageFix" result="shape"/>
<feGaussianBlur stdDeviation="20" result="effect1_foregroundBlur_633_416"/>
</filter>
<filter id="filter2_f_633_416" x="896" y="3" width="311" height="465" filterUnits="userSpaceOnUse" color-interpolation-filters="sRGB">
<feFlood flood-opacity="0" result="BackgroundImageFix"/>
<feBlend mode="normal" in="SourceGraphic" in2="BackgroundImageFix" result="shape"/>
<feGaussianBlur stdDeviation="25" result="effect1_foregroundBlur_633_416"/>
</filter>
<filter id="filter3_f_633_416" x="790" y="0" width="201" height="451" filterUnits="userSpaceOnUse" color-interpolation-filters="sRGB">
<feFlood flood-opacity="0" result="BackgroundImageFix"/>
<feBlend mode="normal" in="SourceGraphic" in2="BackgroundImageFix" result="shape"/>
<feGaussianBlur stdDeviation="25" result="effect1_foregroundBlur_633_416"/>
</filter>
<filter id="filter4_f_633_416" x="53" y="317" width="201" height="387" filterUnits="userSpaceOnUse" color-interpolation-filters="sRGB">
<feFlood flood-opacity="0" result="BackgroundImageFix"/>
<feBlend mode="normal" in="SourceGraphic" in2="BackgroundImageFix" result="shape"/>
<feGaussianBlur stdDeviation="25" result="effect1_foregroundBlur_633_416"/>
</filter>
<filter id="filter5_f_633_416" x="169" y="303" width="181" height="394" filterUnits="userSpaceOnUse" color-interpolation-filters="sRGB">
<feFlood flood-opacity="0" result="BackgroundImageFix"/>
<feBlend mode="normal" in="SourceGraphic" in2="BackgroundImageFix" result="shape"/>
<feGaussianBlur stdDeviation="20" result="effect1_foregroundBlur_633_416"/>
</filter>
<filter id="filter6_f_633_416" x="265" y="264" width="201" height="428" filterUnits="userSpaceOnUse" color-interpolation-filters="sRGB">
<feFlood flood-opacity="0" result="BackgroundImageFix"/>
<feBlend mode="normal" in="SourceGraphic" in2="BackgroundImageFix" result="shape"/>
<feGaussianBlur stdDeviation="25" result="effect1_foregroundBlur_633_416"/>
</filter>
<filter id="filter7_f_633_416" x="376" y="236" width="181" height="382" filterUnits="userSpaceOnUse" color-interpolation-filters="sRGB">
<feFlood flood-opacity="0" result="BackgroundImageFix"/>
<feBlend mode="normal" in="SourceGraphic" in2="BackgroundImageFix" result="shape"/>
<feGaussianBlur stdDeviation="20" result="effect1_foregroundBlur_633_416"/>
</filter>
<filter id="filter8_f_633_416" x="472" y="78" width="201" height="469" filterUnits="userSpaceOnUse" color-interpolation-filters="sRGB">
<feFlood flood-opacity="0" result="BackgroundImageFix"/>
<feBlend mode="normal" in="SourceGraphic" in2="BackgroundImageFix" result="shape"/>
<feGaussianBlur stdDeviation="25" result="effect1_foregroundBlur_633_416"/>
</filter>
<filter id="filter9_f_633_416" x="578" y="33" width="201" height="451" filterUnits="userSpaceOnUse" color-interpolation-filters="sRGB">
<feFlood flood-opacity="0" result="BackgroundImageFix"/>
<feBlend mode="normal" in="SourceGraphic" in2="BackgroundImageFix" result="shape"/>
<feGaussianBlur stdDeviation="25" result="effect1_foregroundBlur_633_416"/>
</filter>
<filter id="filter10_f_633_416" x="694" y="21" width="181" height="426" filterUnits="userSpaceOnUse" color-interpolation-filters="sRGB">
<feFlood flood-opacity="0" result="BackgroundImageFix"/>
<feBlend mode="normal" in="SourceGraphic" in2="BackgroundImageFix" result="shape"/>
<feGaussianBlur stdDeviation="20" result="effect1_foregroundBlur_633_416"/>
</filter>
<filter id="filter11_f_633_416" x="-45" y="338" width="193" height="360" filterUnits="userSpaceOnUse" color-interpolation-filters="sRGB">
<feFlood flood-opacity="0" result="BackgroundImageFix"/>
<feBlend mode="normal" in="SourceGraphic" in2="BackgroundImageFix" result="shape"/>
<feGaussianBlur stdDeviation="25" result="effect1_foregroundBlur_633_416"/>
</filter>
<filter id="filter12_f_633_416" x="1208" y="107" width="201" height="446" filterUnits="userSpaceOnUse" color-interpolation-filters="sRGB">
<feFlood flood-opacity="0" result="BackgroundImageFix"/>
<feBlend mode="normal" in="SourceGraphic" in2="BackgroundImageFix" result="shape"/>
<feGaussianBlur stdDeviation="25" result="effect1_foregroundBlur_633_416"/>
</filter>
<filter id="filter13_f_633_416" x="1415" y="68" width="167" height="451" filterUnits="userSpaceOnUse" color-interpolation-filters="sRGB">
<feFlood flood-opacity="0" result="BackgroundImageFix"/>
<feBlend mode="normal" in="SourceGraphic" in2="BackgroundImageFix" result="shape"/>
<feGaussianBlur stdDeviation="25" result="effect1_foregroundBlur_633_416"/>
</filter>
<linearGradient id="paint0_linear_633_416" x1="6.5" y1="0" x2="6.5" y2="345" gradientUnits="userSpaceOnUse">
<stop stop-color="#94EDDF"/>
<stop offset="1" stop-color="#AA8ACE"/>
</linearGradient>
<linearGradient id="paint1_linear_633_416" x1="6.5" y1="0" x2="6.5" y2="345" gradientUnits="userSpaceOnUse">
<stop stop-color="#94EDDF"/>
<stop offset="1" stop-color="#AA8ACE"/>
</linearGradient>
<linearGradient id="paint2_linear_633_416" x1="6.5" y1="0" x2="6.5" y2="348" gradientUnits="userSpaceOnUse">
<stop stop-color="#94EDDF"/>
<stop offset="1" stop-color="#AA8ACE"/>
</linearGradient>
<linearGradient id="paint3_linear_633_416" x1="6.5" y1="0" x2="6.5" y2="351" gradientUnits="userSpaceOnUse">
<stop stop-color="#94EDDF"/>
<stop offset="1" stop-color="#AA8ACE"/>
</linearGradient>
<linearGradient id="paint4_linear_633_416" x1="6.5" y1="0" x2="6.5" y2="351" gradientUnits="userSpaceOnUse">
<stop stop-color="#94EDDF"/>
<stop offset="1" stop-color="#AA8ACE"/>
</linearGradient>
<linearGradient id="paint5_linear_633_416" x1="6.5" y1="0" x2="6.5" y2="351" gradientUnits="userSpaceOnUse">
<stop stop-color="#94EDDF"/>
<stop offset="1" stop-color="#AA8ACE"/>
</linearGradient>
<linearGradient id="paint6_linear_633_416" x1="6.5" y1="0" x2="6.5" y2="382" gradientUnits="userSpaceOnUse">
<stop stop-color="#94EDDF"/>
<stop offset="1" stop-color="#AA8ACE"/>
</linearGradient>
<linearGradient id="paint7_linear_633_416" x1="6.5" y1="0" x2="6.5" y2="366" gradientUnits="userSpaceOnUse">
<stop stop-color="#94EDDF"/>
<stop offset="1" stop-color="#AA8ACE"/>
</linearGradient>
<linearGradient id="paint8_linear_633_416" x1="6.5" y1="0" x2="6.5" y2="344" gradientUnits="userSpaceOnUse">
<stop stop-color="#94EDDF"/>
<stop offset="1" stop-color="#AA8ACE"/>
</linearGradient>
<linearGradient id="paint9_linear_633_416" x1="6.5" y1="0" x2="6.5" y2="332" gradientUnits="userSpaceOnUse">
<stop stop-color="#94EDDF"/>
<stop offset="1" stop-color="#AA8ACE"/>
</linearGradient>
<linearGradient id="paint10_linear_633_416" x1="6.5" y1="0" x2="6.5" y2="323" gradientUnits="userSpaceOnUse">
<stop stop-color="#94EDDF"/>
<stop offset="1" stop-color="#AA8ACE"/>
</linearGradient>
<linearGradient id="paint11_linear_633_416" x1="6.5" y1="0" x2="6.5" y2="319" gradientUnits="userSpaceOnUse">
<stop stop-color="#94EDDF"/>
<stop offset="1" stop-color="#AA8ACE"/>
</linearGradient>
<linearGradient id="paint12_linear_633_416" x1="6.5" y1="0" x2="6.5" y2="335" gradientUnits="userSpaceOnUse">
<stop stop-color="#94EDDF"/>
<stop offset="1" stop-color="#AA8ACE"/>
</linearGradient>
<linearGradient id="paint13_linear_633_416" x1="6.5" y1="0" x2="6.5" y2="339" gradientUnits="userSpaceOnUse">
<stop stop-color="#94EDDF"/>
<stop offset="1" stop-color="#AA8ACE"/>
</linearGradient>
<linearGradient id="paint14_linear_633_416" x1="6.5" y1="0" x2="6.5" y2="337" gradientUnits="userSpaceOnUse">
<stop stop-color="#94EDDF"/>
<stop offset="1" stop-color="#AA8ACE"/>
</linearGradient>
<linearGradient id="paint15_linear_633_416" x1="6.5" y1="0" x2="6.5" y2="337" gradientUnits="userSpaceOnUse">
<stop stop-color="#94EDDF"/>
<stop offset="1" stop-color="#AA8ACE"/>
</linearGradient>
<linearGradient id="paint16_linear_633_416" x1="6.5" y1="0" x2="6.5" y2="335" gradientUnits="userSpaceOnUse">
<stop stop-color="#94EDDF"/>
<stop offset="1" stop-color="#AA8ACE"/>
</linearGradient>
<linearGradient id="paint17_linear_633_416" x1="6.5" y1="0" x2="6.5" y2="337" gradientUnits="userSpaceOnUse">
<stop stop-color="#94EDDF"/>
<stop offset="1" stop-color="#AA8ACE"/>
</linearGradient>
<linearGradient id="paint18_linear_633_416" x1="6.5" y1="0" x2="6.5" y2="342" gradientUnits="userSpaceOnUse">
<stop stop-color="#94EDDF"/>
<stop offset="1" stop-color="#AA8ACE"/>
</linearGradient>
<linearGradient id="paint19_linear_633_416" x1="6.5" y1="0" x2="6.5" y2="344" gradientUnits="userSpaceOnUse">
<stop stop-color="#94EDDF"/>
<stop offset="1" stop-color="#AA8ACE"/>
</linearGradient>
<linearGradient id="paint20_linear_633_416" x1="6.5" y1="0" x2="6.5" y2="342" gradientUnits="userSpaceOnUse">
<stop stop-color="#94EDDF"/>
<stop offset="1" stop-color="#AA8ACE"/>
</linearGradient>
<linearGradient id="paint21_linear_633_416" x1="6.5" y1="0" x2="6.5" y2="344" gradientUnits="userSpaceOnUse">
<stop stop-color="#94EDDF"/>
<stop offset="1" stop-color="#AA8ACE"/>
</linearGradient>
<linearGradient id="paint22_linear_633_416" x1="6.5" y1="0" x2="6.5" y2="337" gradientUnits="userSpaceOnUse">
<stop stop-color="#94EDDF"/>
<stop offset="1" stop-color="#AA8ACE"/>
</linearGradient>
<linearGradient id="paint23_linear_633_416" x1="6.5" y1="0" x2="6.5" y2="334" gradientUnits="userSpaceOnUse">
<stop stop-color="#94EDDF"/>
<stop offset="1" stop-color="#AA8ACE"/>
</linearGradient>
<linearGradient id="paint24_linear_633_416" x1="6.5" y1="0" x2="6.5" y2="340" gradientUnits="userSpaceOnUse">
<stop stop-color="#94EDDF"/>
<stop offset="1" stop-color="#AA8ACE"/>
</linearGradient>
<linearGradient id="paint25_linear_633_416" x1="6.5" y1="0" x2="6.5" y2="344" gradientUnits="userSpaceOnUse">
<stop stop-color="#94EDDF"/>
<stop offset="1" stop-color="#AA8ACE"/>
</linearGradient>
<linearGradient id="paint26_linear_633_416" x1="6.5" y1="0" x2="6.5" y2="344" gradientUnits="userSpaceOnUse">
<stop stop-color="#94EDDF"/>
<stop offset="1" stop-color="#AA8ACE"/>
</linearGradient>
<linearGradient id="paint27_linear_633_416" x1="6.5" y1="0" x2="6.5" y2="348" gradientUnits="userSpaceOnUse">
<stop stop-color="#94EDDF"/>
<stop offset="1" stop-color="#AA8ACE"/>
</linearGradient>
<linearGradient id="paint28_linear_633_416" x1="6.5" y1="0" x2="6.5" y2="346" gradientUnits="userSpaceOnUse">
<stop stop-color="#94EDDF"/>
<stop offset="1" stop-color="#AA8ACE"/>
</linearGradient>
<linearGradient id="paint29_linear_633_416" x1="6.5" y1="0" x2="6.5" y2="351" gradientUnits="userSpaceOnUse">
<stop stop-color="#94EDDF"/>
<stop offset="1" stop-color="#AA8ACE"/>
</linearGradient>
<linearGradient id="paint30_linear_633_416" x1="6.5" y1="0" x2="6.5" y2="270" gradientUnits="userSpaceOnUse">
<stop stop-color="#94EDDF"/>
<stop offset="1" stop-color="#AA8ACE"/>
</linearGradient>
<linearGradient id="paint31_linear_633_416" x1="6.5" y1="0" x2="6.5" y2="270" gradientUnits="userSpaceOnUse">
<stop stop-color="#94EDDF"/>
<stop offset="1" stop-color="#AA8ACE"/>
</linearGradient>
<linearGradient id="paint32_linear_633_416" x1="6.5" y1="0" x2="6.5" y2="276" gradientUnits="userSpaceOnUse">
<stop stop-color="#94EDDF"/>
<stop offset="1" stop-color="#AA8ACE"/>
</linearGradient>
<linearGradient id="paint33_linear_633_416" x1="6.5" y1="0" x2="6.5" y2="279" gradientUnits="userSpaceOnUse">
<stop stop-color="#94EDDF"/>
<stop offset="1" stop-color="#AA8ACE"/>
</linearGradient>
<linearGradient id="paint34_linear_633_416" x1="6.5" y1="0" x2="6.5" y2="282" gradientUnits="userSpaceOnUse">
<stop stop-color="#94EDDF"/>
<stop offset="1" stop-color="#AA8ACE"/>
</linearGradient>
<linearGradient id="paint35_linear_633_416" x1="6.5" y1="0" x2="6.5" y2="287" gradientUnits="userSpaceOnUse">
<stop stop-color="#94EDDF"/>
<stop offset="1" stop-color="#AA8ACE"/>
</linearGradient>
<linearGradient id="paint36_linear_633_416" x1="6.5" y1="0" x2="6.5" y2="293" gradientUnits="userSpaceOnUse">
<stop stop-color="#94EDDF"/>
<stop offset="1" stop-color="#AA8ACE"/>
</linearGradient>
<linearGradient id="paint37_linear_633_416" x1="6.5" y1="0" x2="6.5" y2="296" gradientUnits="userSpaceOnUse">
<stop stop-color="#94EDDF"/>
<stop offset="1" stop-color="#AA8ACE"/>
</linearGradient>
<linearGradient id="paint38_linear_633_416" x1="6.5" y1="0" x2="6.5" y2="305" gradientUnits="userSpaceOnUse">
<stop stop-color="#94EDDF"/>
<stop offset="1" stop-color="#AA8ACE"/>
</linearGradient>
<linearGradient id="paint39_linear_633_416" x1="6.5" y1="0" x2="6.5" y2="305" gradientUnits="userSpaceOnUse">
<stop stop-color="#94EDDF"/>
<stop offset="1" stop-color="#AA8ACE"/>
</linearGradient>
<linearGradient id="paint40_linear_633_416" x1="6.5" y1="0" x2="6.5" y2="309" gradientUnits="userSpaceOnUse">
<stop stop-color="#94EDDF"/>
<stop offset="1" stop-color="#AA8ACE"/>
</linearGradient>
<linearGradient id="paint41_linear_633_416" x1="6.5" y1="0" x2="6.5" y2="314" gradientUnits="userSpaceOnUse">
<stop stop-color="#94EDDF"/>
<stop offset="1" stop-color="#AA8ACE"/>
</linearGradient>
<linearGradient id="paint42_linear_633_416" x1="6.5" y1="0" x2="6.5" y2="304" gradientUnits="userSpaceOnUse">
<stop stop-color="#94EDDF"/>
<stop offset="1" stop-color="#AA8ACE"/>
</linearGradient>
<linearGradient id="paint43_linear_633_416" x1="6.5" y1="0" x2="6.5" y2="306" gradientUnits="userSpaceOnUse">
<stop stop-color="#94EDDF"/>
<stop offset="1" stop-color="#AA8ACE"/>
</linearGradient>
<linearGradient id="paint44_linear_633_416" x1="6.5" y1="0" x2="6.5" y2="314" gradientUnits="userSpaceOnUse">
<stop stop-color="#94EDDF"/>
<stop offset="1" stop-color="#AA8ACE"/>
</linearGradient>
<linearGradient id="paint45_linear_633_416" x1="6.5" y1="0" x2="6.5" y2="316" gradientUnits="userSpaceOnUse">
<stop stop-color="#94EDDF"/>
<stop offset="1" stop-color="#AA8ACE"/>
</linearGradient>
<linearGradient id="paint46_linear_633_416" x1="6.5" y1="0" x2="6.5" y2="323" gradientUnits="userSpaceOnUse">
<stop stop-color="#94EDDF"/>
<stop offset="1" stop-color="#AA8ACE"/>
</linearGradient>
<linearGradient id="paint47_linear_633_416" x1="6.5" y1="0" x2="6.5" y2="328" gradientUnits="userSpaceOnUse">
<stop stop-color="#94EDDF"/>
<stop offset="1" stop-color="#AA8ACE"/>
</linearGradient>
<linearGradient id="paint48_linear_633_416" x1="6.5" y1="0" x2="6.5" y2="268" gradientUnits="userSpaceOnUse">
<stop stop-color="#94EDDF"/>
<stop offset="1" stop-color="#AA8ACE"/>
</linearGradient>
<linearGradient id="paint49_linear_633_416" x1="6.5" y1="0" x2="6.5" y2="274" gradientUnits="userSpaceOnUse">
<stop stop-color="#94EDDF"/>
<stop offset="1" stop-color="#AA8ACE"/>
</linearGradient>
<linearGradient id="paint50_linear_633_416" x1="6.5" y1="0" x2="6.5" y2="278" gradientUnits="userSpaceOnUse">
<stop stop-color="#94EDDF"/>
<stop offset="1" stop-color="#AA8ACE"/>
</linearGradient>
<linearGradient id="paint51_linear_633_416" x1="6.5" y1="0" x2="6.5" y2="288" gradientUnits="userSpaceOnUse">
<stop stop-color="#94EDDF"/>
<stop offset="1" stop-color="#AA8ACE"/>
</linearGradient>
<linearGradient id="paint52_linear_633_416" x1="6.5" y1="0" x2="6.5" y2="294" gradientUnits="userSpaceOnUse">
<stop stop-color="#94EDDF"/>
<stop offset="1" stop-color="#AA8ACE"/>
</linearGradient>
<linearGradient id="paint53_linear_633_416" x1="6.5" y1="0" x2="6.5" y2="302" gradientUnits="userSpaceOnUse">
<stop stop-color="#94EDDF"/>
<stop offset="1" stop-color="#AA8ACE"/>
</linearGradient>
<linearGradient id="paint54_linear_633_416" x1="6.5" y1="0" x2="6.5" y2="236" gradientUnits="userSpaceOnUse">
<stop stop-color="#94EDDF"/>
<stop offset="1" stop-color="#AA8ACE"/>
</linearGradient>
<linearGradient id="paint55_linear_633_416" x1="6.5" y1="0" x2="6.5" y2="254" gradientUnits="userSpaceOnUse">
<stop stop-color="#94EDDF"/>
<stop offset="1" stop-color="#AA8ACE"/>
</linearGradient>
<linearGradient id="paint56_linear_633_416" x1="6.5" y1="0" x2="6.5" y2="292" gradientUnits="userSpaceOnUse">
<stop stop-color="#94EDDF"/>
<stop offset="1" stop-color="#AA8ACE"/>
</linearGradient>
<linearGradient id="paint57_linear_633_416" x1="6.5" y1="0" x2="6.5" y2="285" gradientUnits="userSpaceOnUse">
<stop stop-color="#94EDDF"/>
<stop offset="1" stop-color="#AA8ACE"/>
</linearGradient>
<linearGradient id="paint58_linear_633_416" x1="6.5" y1="0" x2="6.5" y2="306" gradientUnits="userSpaceOnUse">
<stop stop-color="#94EDDF"/>
<stop offset="1" stop-color="#AA8ACE"/>
</linearGradient>
<linearGradient id="paint59_linear_633_416" x1="6.5" y1="0" x2="6.5" y2="330" gradientUnits="userSpaceOnUse">
<stop stop-color="#94EDDF"/>
<stop offset="1" stop-color="#AA8ACE"/>
</linearGradient>
<linearGradient id="paint60_linear_633_416" x1="6.5" y1="0" x2="6.5" y2="319" gradientUnits="userSpaceOnUse">
<stop stop-color="#94EDDF"/>
<stop offset="1" stop-color="#AA8ACE"/>
</linearGradient>
<linearGradient id="paint61_linear_633_416" x1="6.5" y1="0" x2="6.5" y2="327" gradientUnits="userSpaceOnUse">
<stop stop-color="#94EDDF"/>
<stop offset="1" stop-color="#AA8ACE"/>
</linearGradient>
<linearGradient id="paint62_linear_633_416" x1="6.5" y1="0" x2="6.5" y2="337" gradientUnits="userSpaceOnUse">
<stop stop-color="#94EDDF"/>
<stop offset="1" stop-color="#AA8ACE"/>
</linearGradient>
<linearGradient id="paint63_linear_633_416" x1="6.5" y1="0" x2="6.5" y2="337" gradientUnits="userSpaceOnUse">
<stop stop-color="#94EDDF"/>
<stop offset="1" stop-color="#AA8ACE"/>
</linearGradient>
<linearGradient id="paint64_linear_633_416" x1="6.5" y1="0" x2="6.5" y2="346" gradientUnits="userSpaceOnUse">
<stop stop-color="#94EDDF"/>
<stop offset="1" stop-color="#AA8ACE"/>
</linearGradient>
<linearGradient id="paint65_linear_633_416" x1="6.5" y1="0" x2="6.5" y2="351" gradientUnits="userSpaceOnUse">
<stop stop-color="#94EDDF"/>
<stop offset="1" stop-color="#AA8ACE"/>
</linearGradient>
<linearGradient id="paint66_linear_633_416" x1="6.5" y1="0" x2="6.5" y2="327" gradientUnits="userSpaceOnUse">
<stop stop-color="#94EDDF"/>
<stop offset="1" stop-color="#AA8ACE"/>
</linearGradient>
<linearGradient id="paint67_linear_633_416" x1="6.5" y1="0" x2="6.5" y2="333" gradientUnits="userSpaceOnUse">
<stop stop-color="#94EDDF"/>
<stop offset="1" stop-color="#AA8ACE"/>
</linearGradient>
<linearGradient id="paint68_linear_633_416" x1="6.5" y1="0" x2="6.5" y2="337" gradientUnits="userSpaceOnUse">
<stop stop-color="#94EDDF"/>
<stop offset="1" stop-color="#AA8ACE"/>
</linearGradient>
<linearGradient id="paint69_linear_633_416" x1="6.5" y1="0" x2="6.5" y2="342" gradientUnits="userSpaceOnUse">
<stop stop-color="#94EDDF"/>
<stop offset="1" stop-color="#AA8ACE"/>
</linearGradient>
<linearGradient id="paint70_linear_633_416" x1="6.5" y1="0" x2="6.5" y2="346" gradientUnits="userSpaceOnUse">
<stop stop-color="#94EDDF"/>
<stop offset="1" stop-color="#AA8ACE"/>
</linearGradient>
<linearGradient id="paint71_linear_633_416" x1="6.5" y1="0" x2="6.5" y2="342" gradientUnits="userSpaceOnUse">
<stop stop-color="#94EDDF"/>
<stop offset="1" stop-color="#AA8ACE"/>
</linearGradient>
<linearGradient id="paint72_linear_633_416" x1="6.5" y1="0" x2="6.5" y2="252" gradientUnits="userSpaceOnUse">
<stop stop-color="#94EDDF"/>
<stop offset="1" stop-color="#AA8ACE"/>
</linearGradient>
<linearGradient id="paint73_linear_633_416" x1="6.5" y1="0" x2="6.5" y2="252" gradientUnits="userSpaceOnUse">
<stop stop-color="#94EDDF"/>
<stop offset="1" stop-color="#AA8ACE"/>
</linearGradient>
<linearGradient id="paint74_linear_633_416" x1="6.5" y1="0" x2="6.5" y2="252" gradientUnits="userSpaceOnUse">
<stop stop-color="#94EDDF"/>
<stop offset="1" stop-color="#AA8ACE"/>
</linearGradient>
<linearGradient id="paint75_linear_633_416" x1="6.5" y1="0" x2="6.5" y2="252" gradientUnits="userSpaceOnUse">
<stop stop-color="#94EDDF"/>
<stop offset="1" stop-color="#AA8ACE"/>
</linearGradient>
<linearGradient id="paint76_linear_633_416" x1="6.5" y1="0" x2="6.5" y2="258" gradientUnits="userSpaceOnUse">
<stop stop-color="#94EDDF"/>
<stop offset="1" stop-color="#AA8ACE"/>
</linearGradient>
<linearGradient id="paint77_linear_633_416" x1="6.5" y1="0" x2="6.5" y2="260" gradientUnits="userSpaceOnUse">
<stop stop-color="#94EDDF"/>
<stop offset="1" stop-color="#AA8ACE"/>
</linearGradient>
<linearGradient id="paint78_linear_633_416" x1="6.5" y1="0" x2="6.5" y2="334" gradientUnits="userSpaceOnUse">
<stop stop-color="#94EDDF"/>
<stop offset="1" stop-color="#AA8ACE"/>
</linearGradient>
<linearGradient id="paint79_linear_633_416" x1="6.5" y1="0" x2="6.5" y2="337" gradientUnits="userSpaceOnUse">
<stop stop-color="#94EDDF"/>
<stop offset="1" stop-color="#AA8ACE"/>
</linearGradient>
<linearGradient id="paint80_linear_633_416" x1="6.5" y1="0" x2="6.5" y2="337" gradientUnits="userSpaceOnUse">
<stop stop-color="#94EDDF"/>
<stop offset="1" stop-color="#AA8ACE"/>
</linearGradient>
<linearGradient id="paint81_linear_633_416" x1="6.5" y1="0" x2="6.5" y2="342" gradientUnits="userSpaceOnUse">
<stop stop-color="#94EDDF"/>
<stop offset="1" stop-color="#AA8ACE"/>
</linearGradient>
<linearGradient id="paint82_linear_633_416" x1="6.5" y1="0" x2="6.5" y2="346" gradientUnits="userSpaceOnUse">
<stop stop-color="#94EDDF"/>
<stop offset="1" stop-color="#AA8ACE"/>
</linearGradient>
<linearGradient id="paint83_linear_633_416" x1="6.5" y1="0" x2="6.5" y2="346" gradientUnits="userSpaceOnUse">
<stop stop-color="#94EDDF"/>
<stop offset="1" stop-color="#AA8ACE"/>
</linearGradient>
<linearGradient id="paint84_linear_633_416" x1="6.5" y1="0" x2="6.5" y2="337" gradientUnits="userSpaceOnUse">
<stop stop-color="#94EDDF"/>
<stop offset="1" stop-color="#AA8ACE"/>
</linearGradient>
<linearGradient id="paint85_linear_633_416" x1="6.5" y1="0" x2="6.5" y2="337" gradientUnits="userSpaceOnUse">
<stop stop-color="#94EDDF"/>
<stop offset="1" stop-color="#AA8ACE"/>
</linearGradient>
<linearGradient id="paint86_linear_633_416" x1="6.5" y1="0" x2="6.5" y2="346" gradientUnits="userSpaceOnUse">
<stop stop-color="#94EDDF"/>
<stop offset="1" stop-color="#AA8ACE"/>
</linearGradient>
<linearGradient id="paint87_linear_633_416" x1="6.5" y1="0" x2="6.5" y2="351" gradientUnits="userSpaceOnUse">
<stop stop-color="#94EDDF"/>
<stop offset="1" stop-color="#AA8ACE"/>
</linearGradient>
</defs>
</svg>
