<svg width="49" height="49" viewBox="0 0 49 49" fill="none" xmlns="http://www.w3.org/2000/svg">
<path d="M23.6547 3.00024C23.8724 2.7101 24.0012 2.36304 24.0256 2.00114C24.05 1.63924 23.9689 1.27803 23.7922 0.961287C23.6154 0.644547 23.3506 0.385877 23.0298 0.216628C22.709 0.0473793 22.3459 -0.0251816 21.9847 0.00773999C8.44971 1.24274 0.894706 11.8877 0.0747055 22.7702C-0.745295 33.6727 5.16721 45.2077 18.7022 48.1852C32.9172 51.3102 47.3822 41.0927 48.7422 26.5702C48.7761 26.2107 48.7054 25.849 48.5386 25.5287C48.3718 25.2084 48.1161 24.943 47.8022 24.7645C47.4882 24.586 47.1294 24.502 46.7689 24.5225C46.4083 24.543 46.0614 24.6673 45.7697 24.8802C38.6772 30.0527 30.5697 28.1702 25.4297 23.0702C20.2947 17.9727 18.4297 9.97274 23.6547 3.00024Z" fill="#D9D9D9"/>
</svg>
